<?xml version="1.0" encoding="utf-8"?>
<!-- Generator: Adobe Illustrator 19.0.0, SVG Export Plug-In . SVG Version: 6.00 Build 0)  -->
<svg version="1.1"
	 id="svg4460" xmlns:inkscape="http://www.inkscape.org/namespaces/inkscape" xmlns:rdf="http://www.w3.org/1999/02/22-rdf-syntax-ns#" xmlns:svg="http://www.w3.org/2000/svg" xmlns:dc="http://purl.org/dc/elements/1.1/" xmlns:cc="http://creativecommons.org/ns#"
	 xmlns="http://www.w3.org/2000/svg" xmlns:xlink="http://www.w3.org/1999/xlink" x="0px" y="0px" viewBox="-987 1505 24 24"
	 style="enable-background:new -987 1505 24 24;" xml:space="preserve">
<style type="text/css">
	.st0{opacity:0.3;fill:#FFFFFF;stroke:#FFFFFF;stroke-width:2;stroke-linejoin:round;enable-background:new    ;}
	.st1{fill:#444444;}
	.st2{opacity:0.3;fill:#3A3A3A;enable-background:new    ;}
	.st3{fill:#3A3A3A;}
	.st4{filter:url(#Adobe_OpacityMaskFilter);}
	.st5{opacity:0.64;mask:url(#SVGID_1_);}
	.st6{opacity:0.3;enable-background:new    ;}
	.st7{display:none;fill:none;}
	.st8{fill:#FFFFFF;}
	.st9{font-family:'OpenSans-Bold';}
	.st10{font-size:6.8734px;}
</style>
<g id="layer1" transform="translate(0,-1028.3622)">
	<g id="marker-24" transform="translate(72,-262)">
		<g id="g15422" transform="translate(0,33)">
			<path id="path15235" inkscape:connector-curvature="0" class="st0" d="M-1040.1,2771.9c0,3.5-5,9.5-6.5,11.5
				c-1.5-2-6.5-8-6.5-11.5s3.3-6.5,6.5-6.5S-1040.1,2768.4-1040.1,2771.9z"/>
			<g id="marker-15-7-6-8-1" transform="translate(-173.99314,956.00001)">
				<path id="path7962-4-3-5-3" inkscape:connector-curvature="0" class="st1" d="M-866.1,1815.9c0,3.5-5,9.5-6.5,11.5
					c-1.5-2-6.5-8-6.5-11.5s3.3-6.5,6.5-6.5S-866.1,1812.4-866.1,1815.9z"/>
			</g>
		</g>
	</g>
</g>
<g id="layer1_1_" transform="translate(0,-1028.3622)">
	<g>
		<g>
			<g id="marker-24_16_" transform="translate(72,-262)">
				<g id="g15422_16_" transform="translate(0,33)">
					<path id="path15235_16_" inkscape:connector-curvature="0" class="st2" d="M-1041.4,2772c0,2.8-4,7.6-5.2,9.2
						c-1.2-1.6-5.2-6.4-5.2-9.2c0-2.8,2.6-5.2,5.2-5.2S-1041.4,2769.2-1041.4,2772z"/>
					<g id="marker-15-7-6-8-1_16_" transform="translate(-173.99314,956.00001)">
						<path id="path7962-4-3-5-3_16_" inkscape:connector-curvature="0" class="st3" d="M-867.4,1816c0,2.8-4,7.6-5.2,9.2
							c-1.2-1.6-5.2-6.4-5.2-9.2s2.6-5.2,5.2-5.2S-867.4,1813.2-867.4,1816z"/>
					</g>
				</g>
			</g>
		</g>
	</g>
	<defs>
		<filter id="Adobe_OpacityMaskFilter" filterUnits="userSpaceOnUse" x="-979.8" y="2537.8" width="10.4" height="14.4">
			
				<feColorMatrix  type="matrix" values="-1 0 0 0 1  0 -1 0 0 1  0 0 -1 0 1  0 0 0 1 0" color-interpolation-filters="sRGB" result="source"/>
		</filter>
	</defs>
	<mask maskUnits="userSpaceOnUse" x="-979.8" y="2537.8" width="10.4" height="14.4" id="SVGID_1_">
		<g class="st4">
			
				<image style="overflow:visible;" width="15" height="19" xlink:href="BAB4F00A3B310035.jpg"  transform="matrix(1 0 0 1 -982 2535.3623)">
			</image>
		</g>
	</mask>
	<g class="st5">
		<g>
			<g id="marker-24_13_" transform="translate(72,-262)">
				<g id="g15422_13_" transform="translate(0,33)">
					<path id="path15235_13_" inkscape:connector-curvature="0" class="st6" d="M-1041.4,2772c0,2.8-4,7.6-5.2,9.2
						c-1.2-1.6-5.2-6.4-5.2-9.2c0-2.8,2.6-5.2,5.2-5.2S-1041.4,2769.2-1041.4,2772z"/>
					<g id="marker-15-7-6-8-1_13_" transform="translate(-173.99314,956.00001)">
						<path id="path7962-4-3-5-3_13_" inkscape:connector-curvature="0" d="M-867.4,1816c0,2.8-4,7.6-5.2,9.2
							c-1.2-1.6-5.2-6.4-5.2-9.2s2.6-5.2,5.2-5.2S-867.4,1813.2-867.4,1816z"/>
					</g>
				</g>
			</g>
		</g>
	</g>
</g>
<rect id="canvas" x="-987" y="1505" class="st7" width="24" height="24"/>
<text transform="matrix(1 0 0 1 -976.7927 1517.9296)" class="st8 st9 st10">P</text>
</svg>
